# xmcd
#
# Track frame offsets:
#       150
#       1724
#       17917
#       29820
#       54623
#       62788
#       80004
#       96729
#       111495
#       123356
#       134532
#       150908
#       164607
#       171622
#
# Disc length: 2523 seconds
#
# Revision: 0
# Processed by: cddbd v1.5.2PL0 Copyright (c) Steve Scherf et al.
# Submitted via: WaveLab 6.10
#
DISCID=c909d90e
DTITLE=North Wind - North Wind Live at the Old River Bridge Inn [Disc One]
DYEAR=1900
DGENRE=
TTITLE0=Intro
TTITLE1=(Turn Out the Light and) Love Me Tonight
TTITLE2=Diggy Liggy Lo
TTITLE3=She Thinks I Still Care
TTITLE4=Interlude I
TTITLE5=I Can't Help It (If I'm Still In Love With You)
TTITLE6=Jambalaya
TTITLE7=Tight Fittin' Jeans
TTITLE8=Apartment Number Nine
TTITLE9=Honky Tonkin'
TTITLE10=Bandy the Rodeo Clown
TTITLE11=Do You Right Tonight
TTITLE12=Interlude II
TTITLE13=Rose Coloured Glasses
EXTD=
EXTT0=
EXTT1=
EXTT2=
EXTT3=
EXTT4=
EXTT5=
EXTT6=
EXTT7=
EXTT8=
EXTT9=
EXTT10=
EXTT11=
EXTT12=
EXTT13=
PLAYORDER=
